<?xml version="1.0" encoding="utf-8"?>
<!-- Generator: Adobe Illustrator 18.1.1, SVG Export Plug-In . SVG Version: 6.00 Build 0)  -->
<svg version="1.1" id="Layer_1" xmlns="http://www.w3.org/2000/svg" xmlns:xlink="http://www.w3.org/1999/xlink" x="0px" y="0px"
	 viewBox="0 0 321 85" enable-background="new 0 0 321 85" xml:space="preserve">
<g>
	<g>
		<path fill-rule="evenodd" clip-rule="evenodd" fill="#444444" d="M246.4,52.2c-2.3,0-4,3.3-4,5.2c0,1.2,0.9,1.8,1.6,1.8
			c1.4,0,2.4-1,2.6-1.4c0.1-0.1,0-0.1,0-0.2l-0.2-0.2c0,0-0.1,0-0.1,0.1c-0.2,0.2-0.8,0.6-1.3,0.6c-0.5,0-0.6-0.5-0.6-1
			c0-1.4,0.3-2,0.6-3c0.3-0.7,0.5-1.1,0.8-1.1c0.3,0,0.4,0.2,0.5,0.5c0.1,0.3,0.3,0.4,0.6,0.4c0.3,0,0.7-0.4,0.7-0.9
			C247.7,52.8,247.3,52.2,246.4,52.2z M254.5,52.2c-0.9,0-1.6,0.2-2.3,0.9c-0.9,1-1.3,2.3-1.3,3.6c0,1.8,1.2,2.4,2.1,2.4
			c1,0,1.7-0.3,2.4-0.9c1-1.1,1.3-2.8,1.3-3.7C256.8,52.6,255.4,52.2,254.5,52.2z M254.5,56.6c-0.7,1.2-1.2,1.6-1.6,1.6
			c-0.4,0-0.6-0.4-0.6-0.7c0-0.7,0.3-1.6,0.8-2.6c0.7-1.3,1.2-1.9,1.8-1.9c0.4,0,0.6,0.3,0.6,0.7C255.5,54.4,255,55.7,254.5,56.6z
			 M268.5,52.5c0-0.1,0-0.2-0.2-0.2h-1.4c-0.1,0-0.2,0-0.2,0.1l-0.5,1.5c-0.2,0.7-0.4,1.1-0.7,1.6c-0.4,0.7-1.9,2.4-2.1,2.4
			c-0.1,0-0.3-0.1-0.3-0.3c0-0.3,0.3-1,0.7-2c0.6-1.6,0.9-2.4,0.9-2.7c0-0.4-0.3-0.8-0.8-0.8c-1.6,0-2.4,1.1-2.7,1.5
			c0,0.1,0,0.1,0,0.1l0.2,0.2c0,0,0.1,0,0.2,0c0.4-0.4,0.9-0.8,1.1-0.8c0.2,0,0.3,0.1,0.3,0.3c0,0.2-0.2,0.9-0.6,2
			c-0.7,1.6-1,2.3-1,3c0,0.3,0.4,0.8,0.8,0.8c1.6,0,3-2.2,3.6-3.1l0.2,0.1c-0.2,0.5-0.8,2.1-0.8,2.4c0,0.3,0.3,0.5,0.7,0.5
			c1.5,0,2.4-1.2,2.6-1.6c0-0.1,0-0.1,0-0.2l-0.2-0.1c0,0-0.1,0-0.2,0c-0.3,0.4-0.7,0.8-0.9,0.8c-0.1,0-0.2,0-0.2-0.2
			c0-0.1,0.2-0.7,0.6-2L268.5,52.5z M277.2,52.2c-0.2,0-0.4,0-0.5,0l0.9-1.9c0,0,0-0.1,0-0.1c0,0,0-0.1-0.1-0.1c0,0-0.1,0-0.1,0
			l-1.8,0.5c-0.2,0-0.3,0.1-0.3,0.2l-0.5,1.6c-1.3,0.5-2.1,1.4-2.5,1.9c0,0-0.1,0.1,0,0.2l0.2,0.1c0.1,0,0.1,0,0.2,0
			c0.3-0.4,1-1,1.8-1.2l-2.9,8.5c-0.3,0.9-0.7,1.3-1.2,1.3h-0.4c-0.1,0-0.1,0.1-0.1,0.1l-0.1,0.3c0,0.1,0,0.1,0.1,0.1
			c0.2,0,0.6,0,2.1,0c1.3,0,1.8,0,2,0c0.1,0,0.2,0,0.2-0.1l0.1-0.4c0-0.1,0-0.1-0.1-0.1h-0.4c-0.6,0-0.7-0.3-0.4-1.1l1-3.1
			c1.3-0.1,2.6-0.6,3.4-1.2c1.5-1.1,2-2.2,2-3.4C279.6,53.1,278.7,52.2,277.2,52.2z M274.4,58.4l1.9-5.4c0.2,0,0.3,0,0.4,0
			c0.4,0,1,0.4,1,1.8C277.7,56.8,275.8,58.2,274.4,58.4z M285.5,48.1c-0.1,0-0.1,0-0.2,0.1l-0.1,0.3c0,0.1,0,0.1,0.1,0.1h0.5
			c0.5,0,0.5,0.4,0.3,1l-2.5,7.3c-0.2,0.4-0.4,1.2-0.4,1.5s0.4,0.7,0.7,0.7c1.7,0,2.9-1.4,3-1.5c0-0.1,0-0.1,0-0.2l-0.2-0.2
			c0,0-0.1,0-0.1,0c-0.2,0.2-0.8,0.8-1.2,0.8c-0.3,0-0.3-0.2-0.2-0.7l3.2-9c0.1-0.2,0-0.3-0.1-0.3H285.5z M295.2,55.4
			c0.9-0.5,1.5-1.2,1.5-2.1c0-0.6-0.4-1.1-1.2-1.1c-0.9,0-1.9,0.4-2.7,1.1c-1.4,1.2-1.9,2.9-1.9,4.1c0,1.1,0.8,1.8,1.9,1.8
			c1.6,0,2.8-1,3.1-1.6c0-0.1,0-0.1,0-0.2l-0.3-0.2c0,0-0.1,0-0.1,0c-0.4,0.4-0.9,0.8-1.7,0.8c-0.5,0-0.9-0.5-0.9-1
			c0-0.4,0.1-0.9,0.1-1C293.4,56,294.3,55.8,295.2,55.4z M294.5,53c0.4,0,0.4,0.3,0.4,0.5c0,0.5-0.3,1.1-0.5,1.3
			c-0.5,0.4-1.2,0.7-1.5,0.6C293.2,54.4,293.9,53,294.5,53z M48.5,25.6H35.3V59h13.2c10.5,0,17.7-6.6,17.7-16.7S58.9,25.6,48.5,25.6
			z M48.5,52.7h-6.1V31.9h6.1c6.9,0,10.5,4.6,10.5,10.5C58.9,48,55.1,52.7,48.5,52.7z M76.2,59h23.6v-6.3H83.3v-7.6h16.2v-6.3H83.3
			v-7.1h16.5v-6.3H76.2V59z M116.4,34.7c0-2,1.7-3.4,4.8-3.4c3.4,0,7,1.2,9.7,3.7l4-5.2c-3.3-3.1-7.7-4.7-13-4.7
			c-7.9,0-12.7,4.6-12.7,10.2c0,12.6,19.2,8.5,19.2,14.4c0,1.9-1.9,3.7-5.8,3.7c-4.6,0-8.3-2.1-10.6-4.5l-3.9,5.4
			c3.1,3.2,7.7,5.3,14.1,5.3c9,0,13.4-4.6,13.4-10.7C135.6,36.4,116.4,40,116.4,34.7z M145.3,59h7.1V25.6h-7.1V59z M178.5,46.7h8.8
			v4c-1.4,1.3-4.2,2.6-7.1,2.6c-6.1,0-10.5-4.7-10.5-11s4.4-11,10.5-11c3.6,0,6.4,2,7.9,4.4l5.9-3.2c-2.5-4-6.9-7.5-13.8-7.5
			c-9.8,0-17.8,6.7-17.8,17.3c0,10.5,8,17.3,17.8,17.3c6.1,0,10.8-2.5,14.2-6.3V40.5h-15.9V46.7z M227.8,46.6l-15.5-21H205V59h7.1
			V37.2L228,59h6.9V25.6h-7.1V46.6z M29.6,52.3c0-0.1,0-0.2-0.1-0.2h-1.1c-0.1,0-0.2,0-0.3,0.2l-0.3,0.5c-0.2-0.3-0.5-0.6-1.2-0.6
			c-2.3,0-4.3,3.7-4.3,5.7c0,0.6,0.7,1.2,1.1,1.2c1.5,0,2.6-1.7,3.2-2.7l0.1,0.1c-0.5,1.6-0.6,1.9-0.6,2.1c0,0.3,0.2,0.5,0.7,0.5
			c1.5,0,2.4-1.4,2.5-1.7c0-0.1,0.1-0.2,0-0.2l-0.2-0.1c0,0-0.1,0-0.2,0.1c-0.1,0.2-0.6,0.9-0.9,0.9c-0.1,0-0.2-0.1-0.2-0.2
			c0-0.2,0.6-2,0.6-2.3C28.6,55.1,29.3,53,29.6,52.3z M26.8,55.1c-0.3,0.7-1.8,2.8-2.2,2.8c-0.3,0-0.4-0.1-0.4-0.5
			c0-0.8,0.3-2,1.1-3.4c0.4-0.8,0.8-1.1,1.2-1.1c0.3,0,0.7,0.4,0.7,0.7C27.1,54.1,26.9,54.7,26.8,55.1z"/>
	</g>
</g>
<g>
	<path fill="#444444" d="M321,85H0V0h321V85z M8,77h305V8H8V77z"/>
</g>
</svg>
