<?xml version="1.0" encoding="utf-8"?>
<!-- Generator: Adobe Illustrator 18.1.1, SVG Export Plug-In . SVG Version: 6.00 Build 0)  -->
<svg version="1.1" id="Layer_1" xmlns="http://www.w3.org/2000/svg" xmlns:xlink="http://www.w3.org/1999/xlink" x="0px" y="0px"
	 viewBox="0 534.1 800 211.8" enable-background="new 0 534.1 800 211.8" xml:space="preserve">
<g>
	<g>
		<path fill="#3D3F44" d="M614.1,664.2c-5.7,0-10,8.2-10,13c0,3,2.2,4.5,4,4.5c3.5,0,6-2.5,6.5-3.5c0.2-0.2,0-0.2,0-0.5l-0.5-0.5
			c0,0-0.2,0-0.2,0.2c-0.5,0.5-2,1.5-3.2,1.5c-1.2,0-1.5-1.2-1.5-2.5c0-3.5,0.7-5,1.5-7.5c0.7-1.7,1.2-2.7,2-2.7s1,0.5,1.2,1.2
			c0.2,0.7,0.7,1,1.5,1c0.7,0,1.7-1,1.7-2.2C617.3,665.7,616.3,664.2,614.1,664.2z M634.3,664.2c-2.2,0-4,0.5-5.7,2.2
			c-2.2,2.5-3.2,5.7-3.2,9c0,4.5,3,6,5.2,6c2.5,0,4.2-0.7,6-2.2c2.5-2.7,3.2-7,3.2-9.2C640,665.2,636.5,664.2,634.3,664.2z
			 M634.3,675.1c-1.7,3-3,4-4,4c-1,0-1.5-1-1.5-1.7c0-1.7,0.7-4,2-6.5c1.7-3.2,3-4.7,4.5-4.7c1,0,1.5,0.7,1.5,1.7
			C636.8,669.7,635.5,672.9,634.3,675.1z M669.2,664.9c0-0.2,0-0.5-0.5-0.5h-3.5c-0.2,0-0.5,0-0.5,0.2l-1.2,3.7
			c-0.5,1.7-1,2.7-1.7,4c-1,1.7-4.7,6-5.2,6c-0.2,0-0.7-0.2-0.7-0.7c0-0.7,0.7-2.5,1.7-5c1.5-4,2.2-6,2.2-6.7c0-1-0.7-2-2-2
			c-4,0-6,2.7-6.7,3.7c0,0.2,0,0.2,0,0.2l0.5,0.5c0,0,0.2,0,0.5,0c1-1,2.2-2,2.7-2s0.7,0.2,0.7,0.7c0,0.5-0.5,2.2-1.5,5
			c-1.7,4-2.5,5.7-2.5,7.5c0,0.7,1,2,2,2c4,0,7.5-5.5,9-7.7l0.5,0.2c-0.5,1.2-2,5.2-2,6c0,0.7,0.7,1.2,1.7,1.2c3.7,0,6-3,6.5-4
			c0-0.2,0-0.2,0-0.5l-0.5-0.2c0,0-0.2,0-0.5,0c-0.7,1-1.7,2-2.2,2c-0.2,0-0.5,0-0.5-0.5c0-0.2,0.5-1.7,1.5-5L669.2,664.9z
			 M690.8,664.2c-0.5,0-1,0-1.2,0l2.2-4.7v-0.2c0,0,0-0.2-0.2-0.2h-0.2l-4.5,1.2c-0.5,0-0.7,0.2-0.7,0.5l-1.2,4
			c-3.2,1.2-5.2,3.5-6.2,4.7c0,0-0.2,0.2,0,0.5l0.5,0.2c0.2,0,0.2,0,0.5,0c0.7-1,2.5-2.5,4.5-3l-7.2,21.2c-0.7,2.2-1.7,3.2-3,3.2h-1
			c-0.2,0-0.2,0.2-0.2,0.2l-0.2,0.7c0,0.2,0,0.2,0.2,0.2c0.5,0,1.5,0,5.2,0c3.2,0,4.5,0,5,0c0.2,0,0.5,0,0.5-0.2l0.2-1
			c0-0.2,0-0.2-0.2-0.2h-1c-1.5,0-1.7-0.7-1-2.7l2.5-7.7c3.2-0.2,6.5-1.5,8.5-3c3.7-2.7,5-5.5,5-8.5
			C696.8,666.4,694.6,664.2,690.8,664.2z M683.9,679.6l4.7-13.5c0.5,0,0.7,0,1,0c1,0,2.5,1,2.5,4.5
			C692.1,675.6,687.4,679.1,683.9,679.6z M711.5,654c-0.2,0-0.2,0-0.5,0.2l-0.2,0.7c0,0.2,0,0.2,0.2,0.2h1.2c1.2,0,1.2,1,0.7,2.5
			l-6.2,18.2c-0.5,1-1,3-1,3.7s1,1.7,1.7,1.7c4.2,0,7.2-3.5,7.5-3.7c0-0.2,0-0.2,0-0.5l-0.5-0.5h-0.2c-0.5,0.5-2,2-3,2
			c-0.7,0-0.7-0.5-0.5-1.7l8-22.4c0.2-0.5,0-0.7-0.2-0.7h-7V654z M735.7,672.1c2.2-1.2,3.7-3,3.7-5.2c0-1.5-1-2.7-3-2.7
			c-2.2,0-4.7,1-6.7,2.7c-3.5,3-4.7,7.2-4.7,10.2c0,2.7,2,4.5,4.7,4.5c4,0,7-2.5,7.7-4c0-0.2,0-0.2,0-0.5l-0.7-0.5h-0.2
			c-1,1-2.2,2-4.2,2c-1.2,0-2.2-1.2-2.2-2.5c0-1,0.2-2.2,0.2-2.5C731.2,673.6,733.5,673.1,735.7,672.1z M734,666.2c1,0,1,0.7,1,1.2
			c0,1.2-0.7,2.7-1.2,3.2c-1.2,1-3,1.7-3.7,1.5C730.7,669.7,732.5,666.2,734,666.2z M120.9,597.9H88v83.2h32.9
			c26.2,0,44.1-16.4,44.1-41.6C165,614.3,146.8,597.9,120.9,597.9z M120.9,665.4h-15.2v-51.8h15.2c17.2,0,26.2,11.5,26.2,26.2
			C146.8,653.7,137.3,665.4,120.9,665.4z M189.9,681.1h58.8v-15.7h-41.1v-18.9H248v-15.7h-40.4v-17.7h41.1v-15.7h-58.8V681.1z
			 M290.1,620.6c0-5,4.2-8.5,12-8.5c8.5,0,17.4,3,24.2,9.2l10-13c-8.2-7.7-19.2-11.7-32.4-11.7c-19.7,0-31.7,11.5-31.7,25.4
			c0,31.4,47.9,21.2,47.9,35.9c0,4.7-4.7,9.2-14.5,9.2c-11.5,0-20.7-5.2-26.4-11.2l-9.7,13.5c7.7,8,19.2,13.2,35.1,13.2
			c22.4,0,33.4-11.5,33.4-26.7C337.9,624.8,290.1,633.8,290.1,620.6z M362.1,681.1h17.7v-83.2h-17.7V681.1z M444.9,650.5h21.9v10
			c-3.5,3.2-10.5,6.5-17.7,6.5c-15.2,0-26.2-11.7-26.2-27.4c0-15.7,11-27.4,26.2-27.4c9,0,16,5,19.7,11l14.7-8
			c-6.2-10-17.2-18.7-34.4-18.7c-24.4,0-44.4,16.7-44.4,43.1c0,26.2,19.9,43.1,44.4,43.1c15.2,0,26.9-6.2,35.4-15.7V635h-39.6
			L444.9,650.5L444.9,650.5z M567.7,650.2l-38.6-52.3h-18.2v83.2h17.7v-54.3l39.6,54.3h17.2v-83.2h-17.7V650.2L567.7,650.2z
			 M73.8,664.4c0-0.2,0-0.5-0.2-0.5h-2.7c-0.2,0-0.5,0-0.7,0.5l-0.7,1.2c-0.5-0.7-1.2-1.5-3-1.5c-5.7,0-10.7,9.2-10.7,14.2
			c0,1.5,1.7,3,2.7,3c3.7,0,6.5-4.2,8-6.7l0.2,0.2c-1.2,4-1.5,4.7-1.5,5.2c0,0.7,0.5,1.2,1.7,1.2c3.7,0,6-3.5,6.2-4.2
			c0-0.2,0.2-0.5,0-0.5l-0.5-0.2c0,0-0.2,0-0.5,0.2c-0.2,0.5-1.5,2.2-2.2,2.2c-0.2,0-0.5-0.2-0.5-0.5c0-0.5,1.5-5,1.5-5.7
			C71.3,671.4,73,666.2,73.8,664.4z M66.8,671.4c-0.7,1.7-4.5,7-5.5,7c-0.7,0-1-0.2-1-1.2c0-2,0.7-5,2.7-8.5c1-2,2-2.7,3-2.7
			c0.7,0,1.7,1,1.7,1.7C67.5,668.9,67,670.4,66.8,671.4z"/>
	</g>
</g>
<g>
	<path fill="#3D3F44" d="M800,745.9H0V534.1h800V745.9z M19.9,726h760.1V554H19.9V726z"/>
</g>
</svg>
